<?xml version="1.0" standalone="no"?><!DOCTYPE svg PUBLIC "-//W3C//DTD SVG 1.1//EN" "http://www.w3.org/Graphics/SVG/1.1/DTD/svg11.dtd"><svg t="1515500596758" class="icon" style="" viewBox="0 0 1024 1024" version="1.1" xmlns="http://www.w3.org/2000/svg" p-id="4069" xmlns:xlink="http://www.w3.org/1999/xlink" width="200" height="200"><defs><style type="text/css"></style></defs><path d="M771.434667 1002.666667c-51.541333 0-93.504-41.941333-93.504-93.504 0-51.541333 41.962667-93.482667 93.504-93.482667 51.584 0 93.525333 41.941333 93.525333 93.482667C864.96 960.725333 823.018667 1002.666667 771.434667 1002.666667zM771.434667 865.045333c-24.32 0-44.117333 19.818667-44.117333 44.117333 0 24.341333 19.818667 44.117333 44.117333 44.117333 24.362667 0 44.117333-19.797333 44.117333-44.117333C815.552 884.864 795.797333 865.045333 771.434667 865.045333zM312.618667 1002.666667c-51.562667 0-93.504-41.941333-93.504-93.504 0-51.541333 41.941333-93.482667 93.504-93.482667 51.562667 0 93.525333 41.941333 93.525333 93.482667C406.144 960.725333 364.202667 1002.666667 312.618667 1002.666667zM312.618667 865.045333c-24.32 0-44.117333 19.818667-44.117333 44.117333 0 24.341333 19.797333 44.117333 44.117333 44.117333 24.341333 0 44.138667-19.797333 44.138667-44.117333C356.757333 884.864 336.96 865.045333 312.618667 865.045333zM884.096 702.826667 199.978667 702.826667 151.594667 412.586667 75.968 29.781333 128 12.885333l48.789333 227.626667 784.426667 0L884.096 702.826667zM241.792 653.461333l600.469333 0 60.608-363.541333L180.501333 289.92l19.776 114.410667L241.792 653.461333z" p-id="4070"></path></svg>