<?xml version="1.0" standalone="no"?><!DOCTYPE svg PUBLIC "-//W3C//DTD SVG 1.1//EN" "http://www.w3.org/Graphics/SVG/1.1/DTD/svg11.dtd"><svg t="1515500897441" class="icon" style="" viewBox="0 0 1252 1024" version="1.1" xmlns="http://www.w3.org/2000/svg" p-id="6104" xmlns:xlink="http://www.w3.org/1999/xlink" width="244.53125" height="200"><defs><style type="text/css"></style></defs><path d="M542.619403 896c-32.7675 0-64.66875-2.99375-95.70375-8.07375L222.619403 1024V797.46C105.686903 715.30375 30.619403 589.39125 30.619403 448 30.619403 200.58625 259.838153 0 542.619403 0c282.78125 0 512 200.58625 512 448 0 247.45375-229.21875 448-512 448z m0-832c-247.375 0-448 171.91375-448 384 0 130.12625 75.6975 244.89375 191.2125 314.3675l-2.04875 148.40125 150.64625-90.54625c34.69875 7.44375 70.775 11.7775 108.15125 11.7775 247.45375 0 448-171.91375 448-384C990.619403 235.95375 790.073153 64 542.619403 64z m256 448c-35.32875 0-64-28.63125-64-63.99875s28.6725-64 64-64c35.3275 0 63.99875 28.6725 63.99875 64 0.00125 35.32625-28.67125 63.99875-63.99875 63.99875z m-256 0c-35.2875 0-64-28.63125-64-63.99875s28.71125-64 64-64c35.32875 0 64 28.6725 64 64 0 35.32625-28.6725 63.99875-64 63.99875z m-256 0c-35.28875 0-64-28.63125-64-63.99875s28.71125-64 64-64c35.3275 0 64 28.6725 64 64 0 35.32625-28.6725 63.99875-64 63.99875z" fill="" p-id="6105"></path></svg>