<?xml version="1.0" standalone="no"?><!DOCTYPE svg PUBLIC "-//W3C//DTD SVG 1.1//EN" "http://www.w3.org/Graphics/SVG/1.1/DTD/svg11.dtd"><svg t="1515500652448" class="icon" style="" viewBox="0 0 1024 1024" version="1.1" xmlns="http://www.w3.org/2000/svg" p-id="5418" xmlns:xlink="http://www.w3.org/1999/xlink" width="200" height="200"><defs><style type="text/css"></style></defs><path d="M822.158 960H684.312c-75.815 0-137.846-62.031-137.846-137.846V546.462h275.692c75.815 0 137.846 62.031 137.846 137.846v137.846c0 75.815-62.031 137.846-137.846 137.846zM594.711 594.708v227.446c0 48.246 41.354 89.6 89.6 89.6h137.846c48.246 0 89.6-41.354 89.6-89.6V684.308c0-48.246-41.354-89.6-89.6-89.6H594.711zM339.696 960H201.85c-75.815 0-137.846-62.031-137.846-137.846V684.308c0-75.815 62.031-137.846 137.846-137.846h275.692v275.692c0 75.815-62.03 137.846-137.846 137.846zM201.85 594.708c-48.246 0-89.6 41.354-89.6 89.6v137.846c0 48.246 41.354 89.6 89.6 89.6h137.846c48.246 0 89.6-41.354 89.6-89.6V594.708H201.85z m620.308-117.17H546.465V201.846C546.465 126.031 608.496 64 684.312 64h137.846c75.815 0 137.846 62.031 137.846 137.846v137.846c0 75.816-62.031 137.846-137.846 137.846z m-227.447-48.246h227.446c48.246 0 89.6-41.354 89.6-89.6V201.846c0-48.246-41.354-89.6-89.6-89.6H684.312c-48.246 0-89.6 41.354-89.6 89.6v227.446z m-117.169 48.246H201.85c-75.815 0-137.846-62.031-137.846-137.846V201.846C64.004 126.031 126.035 64 201.85 64h137.846c75.815 0 137.846 62.031 137.846 137.846v275.692zM201.85 112.246c-48.246 0-89.6 41.354-89.6 89.6v137.846c0 48.246 41.354 89.6 89.6 89.6h227.446V201.846c0-48.246-41.354-89.6-89.6-89.6H201.85z" p-id="5419"></path></svg>