<?xml version="1.0" standalone="no"?><!DOCTYPE svg PUBLIC "-//W3C//DTD SVG 1.1//EN" "http://www.w3.org/Graphics/SVG/1.1/DTD/svg11.dtd"><svg t="1515500454287" class="icon" style="" viewBox="0 0 1024 1024" version="1.1" xmlns="http://www.w3.org/2000/svg" p-id="1888" xmlns:xlink="http://www.w3.org/1999/xlink" width="200" height="200"><defs><style type="text/css"></style></defs><path d="M1009.302 552.355l-501.053-468.483-501.053 467.107c-9.802 9.138-10.349 24.507-1.188 34.299 9.151 9.785 24.538 10.338 34.333 1.179l467.871-436.154 467.892 437.482c4.694 4.386 10.653 6.554 16.601 6.554 6.475 0 12.953-2.572 17.731-7.69 9.169-9.785 8.665-25.139-1.136-34.292v0zM1009.302 552.355z" p-id="1889" fill="#515151"></path><path d="M856.405 561.977c-13.411 0-24.29 10.873-24.29 24.267v372.095h-194.331v-258.848h-259.104v258.848h-194.323v-372.095c0-13.394-10.868-24.267-24.289-24.267-13.429 0-24.295 10.873-24.295 24.267v420.627h291.493v-258.847h161.94v258.847h291.486v-420.627c0.001-13.394-10.881-24.267-24.286-24.267v0zM856.405 561.977z" p-id="1890" fill="#515151"></path><path d="M686.37 214.152h145.744v129.421c0 13.414 10.881 24.272 24.29 24.272 13.407 0 24.287-10.858 24.287-24.272v-177.953h-194.322c-13.414 0-24.295 10.852-24.295 24.267-0.001 13.41 10.881 24.267 24.295 24.267v0zM686.37 214.152z" p-id="1891" fill="#515151"></path></svg>