<?xml version="1.0" standalone="no"?><!DOCTYPE svg PUBLIC "-//W3C//DTD SVG 1.1//EN" "http://www.w3.org/Graphics/SVG/1.1/DTD/svg11.dtd"><svg t="1515501010424" class="icon" style="" viewBox="0 0 1024 1024" version="1.1" xmlns="http://www.w3.org/2000/svg" p-id="7497" xmlns:xlink="http://www.w3.org/1999/xlink" width="200" height="200"><defs><style type="text/css"></style></defs><path d="M855.301833 991.95312H612.305497c-14.129812 0-25.582655-11.452843-25.582655-25.582655V617.571431H438.816211v348.799034c0 14.129812-11.453866 25.582655-25.582655 25.582655H167.591973c-14.128789 0-25.582655-11.452843-25.582655-25.582655V444.035072H28.744671a25.583678 25.583678 0 0 1-15.947204-45.586244l483.430315-385.392464c9.333576-7.440459 22.572088-7.437389 31.90157 0.005116l483.078297 385.392464a25.581632 25.581632 0 0 1-15.954367 45.581128H880.884488v522.335393c0 14.129812-11.45489 25.582655-25.582655 25.582655z m-217.413681-51.16531h191.831026V418.452417c0-14.128789 11.453866-25.582655 25.582655-25.582655h66.864874L512.169869 65.782216 101.875249 392.869762h65.716724c14.128789 0 25.582655 11.453866 25.582655 25.582655v522.335393h194.476273V591.988776c0-14.129812 11.453866-25.582655 25.582655-25.582655h199.071941c14.129812 0 25.582655 11.452843 25.582655 25.582655v348.799034z" fill="#ffffff" p-id="7498"></path></svg>