<?xml version="1.0" standalone="no"?><!DOCTYPE svg PUBLIC "-//W3C//DTD SVG 1.1//EN" "http://www.w3.org/Graphics/SVG/1.1/DTD/svg11.dtd"><svg t="1515500544513" class="icon" style="" viewBox="0 0 1024 1024" version="1.1" xmlns="http://www.w3.org/2000/svg" p-id="2667" xmlns:xlink="http://www.w3.org/1999/xlink" width="200" height="200"><defs><style type="text/css"></style></defs><path d="M208.583 484.853c-2.727 0-4.878 0.4-6.568 1.073a25.048 25.048 0 0 1 7.261-1.073h-0.693m753.511 300.224c0.074-1.396 0.254-2.763 0.548-4.081-0.323 0.603-0.495 1.897-0.548 4.081m50.268-554.62c0.014-0.055 0.014-0.123 0.014-0.177v-0.655c-0.001 0.283-0.001 0.565-0.014 0.832m-50.299-0.083c0 0.056 0 0.112 0.015 0.173-0.015-0.304-0.015-0.614-0.015-0.923v0.75m30.338 754.343c-7.076-52.687-22.554-103.56-45.991-151.207a491.965 491.965 0 0 0-14.584-27.449c-0.014-0.027-0.025-0.055-0.063-0.082-22.313-37.788-49.685-72.877-81.594-104.194l-0.012-0.014a518.88 518.88 0 0 0-21.44-19.895c-52.46-45.968-113.026-80.059-177.612-100.792a307.11 307.11 0 0 0 33.859-21.767 309.538 309.538 0 0 0 35.22-30.315c58.225-58.234 90.302-135.664 90.302-218.019 0-82.357-32.078-159.786-90.302-218.015C663.005 35.795 587.319 3.847 506.653 2.693c-1.277-0.013-2.562-0.028-3.84-0.028-1.284 0-2.562 0.015-3.837 0.028-80.667 1.153-156.359 33.102-213.532 90.275-58.223 58.23-90.304 135.661-90.304 218.016s32.081 159.787 90.304 218.019a309.606 309.606 0 0 0 35.212 30.315 306.961 306.961 0 0 0 33.865 21.769c-64.585 20.732-125.152 54.824-177.613 100.792a512.41 512.41 0 0 0-21.437 19.895c-31.935 31.345-59.343 66.46-81.67 104.289-5.143 8.98-10 18.136-14.587 27.449-23.44 47.646-38.909 98.521-45.991 151.208-2.26 16.878 9.581 32.396 26.454 34.661 1.387 0.186 2.782 0.281 4.15 0.281 1.25 0 2.473-0.068 3.695-0.227 12.201-2.657 22.05-12.604 23.96-25.67 14.212-97.522 60.689-186.143 127.5-253.628 79.292-80.113 187.207-130.466 303.834-130.667h0.66c116.372 0.399 224.04 50.704 303.173 130.667 66.806 67.485 113.291 156.105 127.501 253.628 1.911 13.038 11.721 22.972 23.887 25.656 0.025 0 0.041 0.014 0.067 0.014a28.64 28.64 0 0 0 3.703 0.227c1.365 0 2.755-0.096 4.148-0.281 16.869-2.268 28.711-17.786 26.446-34.664M502.154 557.648c-0.625 0-1.243 0-1.86-0.014-115.075-0.847-217.673-80.797-245.714-188.042a144.6 144.6 0 0 1-0.899-3.53 228.656 228.656 0 0 1-6.728-55.078c0-18.925 2.336-37.56 6.728-55.598 0.282-1.21 0.589-2.405 0.899-3.601C282.773 141.856 386.325 54.48 502.154 54.48h1.319c115.821 0 219.382 87.377 247.576 197.306 0.308 1.196 0.617 2.39 0.899 3.601 4.388 18.038 6.724 36.673 6.724 55.598 0 18.927-2.336 37.348-6.724 55.078a159.786 159.786 0 0 1-0.899 3.53c-28.042 107.246-130.642 187.196-245.722 188.042-1.05 0.013-2.108 0.013-3.173 0.013m0 0z" p-id="2668" fill="#515151"></path></svg>